<mxfile host="Electron" modified="2024-04-21T20:09:19.438Z" agent="Mozilla/5.0 (Windows NT 10.0; Win64; x64) AppleWebKit/537.36 (KHTML, like Gecko) draw.io/24.2.5 Chrome/120.0.6099.109 Electron/28.1.0 Safari/537.36" etag="uk-KfhS0ynUW7EpSsuYW" version="24.2.5" type="device">
  <diagram id="U4rm6_9nxG_JotQ04B9f" name="Page-1">
    <mxGraphModel dx="1100" dy="992" grid="1" gridSize="10" guides="1" tooltips="1" connect="1" arrows="1" fold="1" page="1" pageScale="1" pageWidth="827" pageHeight="1169" math="0" shadow="0">
      <root>
        <mxCell id="0" />
        <mxCell id="1" parent="0" />
        <mxCell id="AoAeNmF84v4GQbBgho1j-1" style="edgeStyle=orthogonalEdgeStyle;rounded=0;orthogonalLoop=1;jettySize=auto;html=1;" parent="1" source="AoAeNmF84v4GQbBgho1j-2" target="AoAeNmF84v4GQbBgho1j-3" edge="1">
          <mxGeometry relative="1" as="geometry" />
        </mxCell>
        <mxCell id="AoAeNmF84v4GQbBgho1j-2" value="utilisateur connecté" style="shape=umlActor;verticalLabelPosition=bottom;verticalAlign=top;html=1;outlineConnect=0;" parent="1" vertex="1">
          <mxGeometry x="50" y="480" width="30" height="60" as="geometry" />
        </mxCell>
        <mxCell id="AoAeNmF84v4GQbBgho1j-3" value="utilisateur non connecté" style="shape=umlActor;verticalLabelPosition=bottom;verticalAlign=top;html=1;outlineConnect=0;" parent="1" vertex="1">
          <mxGeometry x="50" y="220" width="30" height="60" as="geometry" />
        </mxCell>
        <mxCell id="AoAeNmF84v4GQbBgho1j-4" value="Regarder les infos sur les personnages" style="ellipse;whiteSpace=wrap;html=1;" parent="1" vertex="1">
          <mxGeometry x="345" y="240" width="150" height="100" as="geometry" />
        </mxCell>
        <mxCell id="AoAeNmF84v4GQbBgho1j-5" value="Créer un compte" style="ellipse;whiteSpace=wrap;html=1;" parent="1" vertex="1">
          <mxGeometry x="360" y="130" width="120" height="80" as="geometry" />
        </mxCell>
        <mxCell id="AoAeNmF84v4GQbBgho1j-6" value="Créer une personnage" style="ellipse;whiteSpace=wrap;html=1;" parent="1" vertex="1">
          <mxGeometry x="360" y="370" width="120" height="80" as="geometry" />
        </mxCell>
        <mxCell id="AoAeNmF84v4GQbBgho1j-7" value="modifier un personnage" style="ellipse;whiteSpace=wrap;html=1;" parent="1" vertex="1">
          <mxGeometry x="360" y="490" width="120" height="80" as="geometry" />
        </mxCell>
        <mxCell id="AoAeNmF84v4GQbBgho1j-8" value="" style="endArrow=none;html=1;rounded=0;" parent="1" source="AoAeNmF84v4GQbBgho1j-3" target="AoAeNmF84v4GQbBgho1j-5" edge="1">
          <mxGeometry width="50" height="50" relative="1" as="geometry">
            <mxPoint x="110" y="260" as="sourcePoint" />
            <mxPoint x="210" y="200" as="targetPoint" />
          </mxGeometry>
        </mxCell>
        <mxCell id="AoAeNmF84v4GQbBgho1j-9" value="" style="endArrow=none;html=1;rounded=0;" parent="1" source="AoAeNmF84v4GQbBgho1j-3" target="AoAeNmF84v4GQbBgho1j-4" edge="1">
          <mxGeometry width="50" height="50" relative="1" as="geometry">
            <mxPoint x="90" y="256" as="sourcePoint" />
            <mxPoint x="355" y="176" as="targetPoint" />
          </mxGeometry>
        </mxCell>
        <mxCell id="AoAeNmF84v4GQbBgho1j-10" value="supprimer un personnage" style="ellipse;whiteSpace=wrap;html=1;" parent="1" vertex="1">
          <mxGeometry x="360" y="610" width="120" height="80" as="geometry" />
        </mxCell>
        <mxCell id="AoAeNmF84v4GQbBgho1j-11" value="" style="endArrow=none;html=1;rounded=0;" parent="1" source="AoAeNmF84v4GQbBgho1j-2" target="AoAeNmF84v4GQbBgho1j-6" edge="1">
          <mxGeometry width="50" height="50" relative="1" as="geometry">
            <mxPoint x="180" y="520" as="sourcePoint" />
            <mxPoint x="230" y="470" as="targetPoint" />
          </mxGeometry>
        </mxCell>
        <mxCell id="AoAeNmF84v4GQbBgho1j-12" value="" style="endArrow=none;html=1;rounded=0;" parent="1" source="AoAeNmF84v4GQbBgho1j-2" target="AoAeNmF84v4GQbBgho1j-7" edge="1">
          <mxGeometry width="50" height="50" relative="1" as="geometry">
            <mxPoint x="90" y="516" as="sourcePoint" />
            <mxPoint x="375" y="436" as="targetPoint" />
          </mxGeometry>
        </mxCell>
        <mxCell id="AoAeNmF84v4GQbBgho1j-13" value="" style="endArrow=none;html=1;rounded=0;" parent="1" source="AoAeNmF84v4GQbBgho1j-2" target="AoAeNmF84v4GQbBgho1j-10" edge="1">
          <mxGeometry width="50" height="50" relative="1" as="geometry">
            <mxPoint x="90" y="521" as="sourcePoint" />
            <mxPoint x="370" y="537" as="targetPoint" />
          </mxGeometry>
        </mxCell>
        <mxCell id="SHQFnW14phcdugXAMs_p-2" value="" style="endArrow=none;dashed=1;html=1;dashPattern=1 3;strokeWidth=2;rounded=0;" parent="1" source="AoAeNmF84v4GQbBgho1j-4" target="SHQFnW14phcdugXAMs_p-5" edge="1">
          <mxGeometry width="50" height="50" relative="1" as="geometry">
            <mxPoint x="540" y="315" as="sourcePoint" />
            <mxPoint x="590" y="265" as="targetPoint" />
          </mxGeometry>
        </mxCell>
        <mxCell id="SHQFnW14phcdugXAMs_p-5" value="regarder la/les saison/s" style="ellipse;whiteSpace=wrap;html=1;" parent="1" vertex="1">
          <mxGeometry x="640" y="180" width="120" height="80" as="geometry" />
        </mxCell>
        <mxCell id="SHQFnW14phcdugXAMs_p-6" value="regarder la/les partie/s" style="ellipse;whiteSpace=wrap;html=1;" parent="1" vertex="1">
          <mxGeometry x="640" y="300" width="120" height="80" as="geometry" />
        </mxCell>
        <mxCell id="SHQFnW14phcdugXAMs_p-8" value="" style="endArrow=none;dashed=1;html=1;dashPattern=1 3;strokeWidth=2;rounded=0;" parent="1" source="AoAeNmF84v4GQbBgho1j-4" target="SHQFnW14phcdugXAMs_p-6" edge="1">
          <mxGeometry width="50" height="50" relative="1" as="geometry">
            <mxPoint x="510" y="340" as="sourcePoint" />
            <mxPoint x="560" y="290" as="targetPoint" />
          </mxGeometry>
        </mxCell>
      </root>
    </mxGraphModel>
  </diagram>
</mxfile>
